<?xml version="1.0" encoding="UTF-8"?><svg id="Layer_1" xmlns="http://www.w3.org/2000/svg" viewBox="65 0 70 50"><defs><style>.cls-1{fill:none;}.cls-2{fill:#026dae;}.cls-3{fill:#ff4b4b;}.cls-4{fill:#fff;}.cls-5{fill:#fca2a3;}.cls-6{fill:#faeda1;}.cls-7{fill:#a4ce39;}.cls-8{fill:#cb2d2f;}.cls-9{fill:#abdbf7;}.cls-10{fill:#5d2815;}.cls-11{fill:#2d8cce;}.cls-12{fill:#794532;}</style></defs><rect class="cls-1" width="200" height="50"/><g id="Group_4062"><g id="Group_4062-2"><path id="Path_16148" class="cls-6" d="m124.38,29.566h-3.61v11.042c-.002,1.152-.936,2.086-2.088,2.088h-3.878l2.387,3.82h8.595l5.372-8.595-4.501-7.201c-.8.385-1.76.049-2.145-.75-.062-.129-.106-.265-.132-.405"/><path id="Path_16149" class="cls-10" d="m127.138,30.368c-.137.147-.301.267-.483.353l4.501,7.201-5.372,8.595h-8.595l-2.387-3.82h-.704l2.585,4.136.175.28h9.256l.175-.28,5.372-8.595.198-.316-.198-.316-4.523-7.238Z"/><path id="Path_16150" class="cls-6" d="m125.963,27.656c.196,0,.391.037.575.108l4.619-7.389-4.585-7.34c-.791.404-1.76.09-2.164-.701-.089-.173-.145-.361-.166-.555h-7.052l-2.537,4.059h4.029c1.152.002,2.086.936,2.088,2.088v11.042h3.61c.143-.761.808-1.312,1.582-1.313"/><path id="Path_16151" class="cls-10" d="m126.57,13.038l4.585,7.34-4.619,7.389c.187.072.358.178.506.313l4.619-7.386.198-.316-.198-.316-4.619-7.386c-.134.151-.295.275-.475.366"/><path id="Path_16152" class="cls-10" d="m124.351,29.268c0-.1.009-.2.028-.299h-3.607v.597h3.607c-.019-.098-.028-.198-.028-.299"/><path id="Path_16153" class="cls-10" d="m114.652,15.838l2.537-4.059h7.054c-.023-.2-.008-.403.046-.597h-7.43l-.175.28-2.735,4.375h.704Z"/><path id="Path_16154" class="cls-6" d="m88.812,11.78l-.123.197-2.414,3.86h13.397l-2.536-4.056h-8.323Z"/><path id="Path_16155" class="cls-10" d="m88.886,11.66l-.075.12h8.323l2.537,4.059h.704l-2.734-4.376-.175-.28h-8.878l.101.161.197.316Z"/><path id="Path_16156" class="cls-6" d="m82.81,3.066h-8.594l-5.369,8.595,4.585,7.34c.792-.403,1.76-.087,2.163.705.088.173.144.36.165.553h2.637v-2.331c.002-1.152.936-2.086,2.088-2.088h5.088l2.611-4.176-5.374-8.597Z"/><path id="Path_16157" class="cls-10" d="m73.43,18.997l-4.585-7.34,5.37-8.592h8.596l5.372,8.595-2.611,4.176h.704l2.414-3.86.123-.197.075-.12-.197-.316-.101-.161-5.272-8.434-.175-.28h-9.257l-.177.28-5.37,8.595-.198.316.198.316,4.616,7.386c.134-.151.295-.275.475-.366"/><path id="Path_16158" class="cls-10" d="m78.394,20.255h-2.637c.023.2.008.403-.046.597h2.683v-.597Z"/><rect id="Rectangle_2920" class="cls-10" x="97.254" y="42.697" width="3.581" height="3.044"/><path id="Path_16159" class="cls-11" d="m91.525,38.518c12.189.997,26.638,1.48,28.649,1.544v-16.894c-.664-1.003-3.164-2.864-12.535-3.63-12.187-.997-26.638-1.48-28.648-1.544v16.894c.666,1.003,3.168,2.862,12.534,3.629m14.663-14.299h3.345l1.739,3.023,1.693-3.023h3.311l-3.059,4.759,3.347,5.067h-3.412l-1.941-3.157-1.941,3.157h-3.391l3.389-5.121-3.082-4.706Zm-11.185,0l1.038,5.501,1.519-5.501h2.874l1.524,5.494,1.04-5.494h2.869l-2.166,9.827h-2.978l-1.724-6.187-1.717,6.187h-2.978l-2.187-9.826h2.885Zm-5.402,0l3.693,9.827h-3.179l-.492-1.622h-3.447l-.479,1.622h-3.1l3.693-9.827h3.312Z"/><path id="Path_16160" class="cls-11" d="m86.834,30.3h2.158l-1.084-3.532-1.074,3.532Z"/><path id="Path_16161" class="cls-10" d="m100.836,45.741h-6.864c-.494-.002-.897.398-.898.893-.002.494.398.897.893.898h11.346c.494-.002.894-.404.893-.898-.002-.492-.4-.891-.893-.893h-4.477Z"/><path id="Path_16162" class="cls-12" d="m100.838,45.741h1.194v-3.044h-1.194v3.044Z"/><path id="Path_16163" class="cls-2" d="m84.809,40.608h35.365v-.545c-2.01-.063-16.46-.547-28.649-1.544-9.364-.766-11.869-2.625-12.534-3.629v5.712h5.814l.004.006Z"/><path id="Path_16164" class="cls-3" d="m114.223,42.1l-.929-1.476h6.88v-.016h-35.365l.89,1.492h28.525Z"/><path id="Path_16165" class="cls-9" d="m107.639,19.539c9.37.767,11.87,2.627,12.535,3.63v-5.241c-.001-.824-.668-1.491-1.492-1.492h-38.199c-.824.001-1.491.668-1.492,1.492v.067c2.013.063,16.46.547,28.648,1.544"/><path id="Path_16166" class="cls-8" d="m84.809,40.607l-.004-.006h-5.812v.005c.001.824.668,1.491,1.492,1.492h5.215l-.892-1.491Z"/><path id="Path_16167" class="cls-5" d="m113.293,40.624l.929,1.476h4.458c.817,0,1.482-.659,1.491-1.476h-6.879Z"/><path id="Path_16168" class="cls-10" d="m114.802,42.697h3.88c1.152-.002,2.086-.936,2.088-2.088v-22.682c-.002-1.152-.936-2.086-2.088-2.088h-38.198c-1.152.002-2.086.936-2.088,2.088v22.68c.002,1.152.936,2.086,2.088,2.088h34.319v.002Zm-29.105-.597h-5.213c-.824-.001-1.491-.668-1.492-1.492v-22.682c.001-.824.668-1.491,1.492-1.492h38.199c.824.001,1.491.668,1.492,1.492v22.696c-.009.817-.674,1.475-1.491,1.476h-32.986Z"/><path id="Path_16169" class="cls-4" d="m94.305,34.047h2.978l1.717-6.187,1.724,6.187h2.978l2.166-9.826h-2.869l-1.04,5.494-1.524-5.494h-2.874l-1.519,5.501-1.038-5.501h-2.884l2.186,9.826Z"/><path id="Path_16170" class="cls-4" d="m109.272,34.047l1.941-3.157,1.941,3.157h3.412l-3.347-5.067,3.059-4.759h-3.311l-1.693,3.025-1.739-3.023h-3.345l3.081,4.706-3.389,5.121,3.391-.002Z"/><path id="Path_16171" class="cls-4" d="m82.598,34.047h3.1l.479-1.622h3.444l.492,1.622h3.178l-3.693-9.826h-3.312l-3.688,9.826Zm6.397-3.747h-2.158l1.076-3.532,1.082,3.532Z"/><path id="Path_16172" class="cls-7" d="m124.831,11.598c0,.559.453,1.012,1.012,1.012.559,0,1.012-.453,1.012-1.012s-.453-1.012-1.012-1.012c-.558.002-1.011.454-1.012,1.012"/><path id="Path_16173" class="cls-10" d="m124.235,11.601c-.004.894.717,1.622,1.61,1.626.894.004,1.622-.717,1.626-1.61s-.717-1.622-1.61-1.626c-.733-.004-1.377.486-1.57,1.193-.037.136-.056.277-.057.418m1.612-1.012c.559,0,1.012.453,1.012,1.012,0,.559-.453,1.012-1.012,1.012-.559,0-1.012-.453-1.012-1.012.002-.558.454-1.011,1.012-1.012"/><path id="Path_16174" class="cls-7" d="m75.169,20.432c0-.559-.453-1.012-1.012-1.012s-1.012.453-1.012,1.012.453,1.012,1.012,1.012c.558-.002,1.011-.454,1.012-1.012"/><path id="Path_16175" class="cls-10" d="m75.768,20.434c.004-.894-.717-1.622-1.61-1.626-.894-.004-1.622.717-1.626,1.61-.004.894.717,1.622,1.61,1.626.733.004,1.377-.486,1.57-1.193.037-.136.056-.277.057-.418m-1.612,1.012c-.559,0-1.012-.453-1.012-1.012s.453-1.012,1.012-1.012,1.012.453,1.012,1.012c-.002.558-.454,1.011-1.012,1.012"/><path id="Path_16176" class="cls-3" d="m125.963,28.253c-.559,0-1.012.453-1.012,1.012,0,.559.453,1.012,1.012,1.012s1.012-.453,1.012-1.012c-.002-.558-.454-1.011-1.012-1.012"/><path id="Path_16177" class="cls-10" d="m126.537,27.764c-.832-.322-1.768.092-2.09.925s.092,1.768.925,2.09c.832.322,1.768-.092,2.09-.925.24-.622.074-1.328-.418-1.777-.148-.135-.319-.241-.506-.313m.443,1.504c0,.559-.453,1.012-1.012,1.012s-1.012-.453-1.012-1.012c0-.559.453-1.012,1.012-1.012.558.002,1.011.454,1.012,1.012"/></g></g></svg>